<svg width="32" height="30" viewBox="0 0 32 30" fill="none" xmlns="http://www.w3.org/2000/svg">
<g id="Group">
<g id="Group_2">
<path id="Vector" d="M23.7575 7.33939H22.7393C22.5938 5.64242 21.915 4.13939 20.7029 3.07273C19.4423 1.90909 17.7938 1.27879 16.0484 1.27879H15.9514C14.2544 1.27879 12.6059 1.90909 11.2969 3.07273C10.0847 4.13939 9.40595 5.69091 9.26049 7.33939H8.24231C8.38776 5.35151 9.21201 3.55757 10.6181 2.29697C12.0726 0.987878 13.9635 0.260605 15.9514 0.260605H16.0484C18.0362 0.260605 19.9272 0.987878 21.3817 2.29697C22.7878 3.55757 23.612 5.35151 23.7575 7.33939Z" fill="#388FF3"/>
</g>
<path id="Vector_2" d="M18.7151 15.2909H13.2848C12.9939 15.2909 12.7515 15.5333 12.7515 15.8242V18.7818C12.7515 19.0727 12.9939 19.3152 13.2848 19.3152H18.6666C18.9575 19.3152 19.1999 19.0727 19.1999 18.7818V15.8242C19.1999 15.5333 18.9575 15.2909 18.7151 15.2909ZM18.7151 15.2909H13.2848C12.9939 15.2909 12.7515 15.5333 12.7515 15.8242V18.7818C12.7515 19.0727 12.9939 19.3152 13.2848 19.3152H18.6666C18.9575 19.3152 19.1999 19.0727 19.1999 18.7818V15.8242C19.1999 15.5333 18.9575 15.2909 18.7151 15.2909ZM18.7151 15.2909H13.2848C12.9939 15.2909 12.7515 15.5333 12.7515 15.8242V18.7818C12.7515 19.0727 12.9939 19.3152 13.2848 19.3152H18.6666C18.9575 19.3152 19.1999 19.0727 19.1999 18.7818V15.8242C19.1999 15.5333 18.9575 15.2909 18.7151 15.2909ZM18.7151 15.2909H13.2848C12.9939 15.2909 12.7515 15.5333 12.7515 15.8242V18.7818C12.7515 19.0727 12.9939 19.3152 13.2848 19.3152H18.6666C18.9575 19.3152 19.1999 19.0727 19.1999 18.7818V15.8242C19.1999 15.5333 18.9575 15.2909 18.7151 15.2909ZM31.4181 24.4061L29.1393 14.7091C28.9454 15.1455 28.703 15.5818 28.4121 15.9697C27.3939 17.2788 25.8424 18.0061 24.1939 18.0061H21.3333C21.0424 18.0061 20.7999 17.7636 20.7999 17.4727C20.7999 17.1818 21.0424 16.9394 21.3333 16.9394H24.1939C25.5515 16.9394 26.7636 16.3576 27.5878 15.2909C28.4121 14.2242 28.703 12.9152 28.4121 11.6061L27.9272 9.61818C27.7333 8.89091 27.103 8.35757 26.3272 8.35757H5.67267C4.89691 8.35757 4.26661 8.89091 4.07267 9.61818L3.63631 11.6061C3.3454 12.9152 3.63631 14.2727 4.46055 15.2909C5.28479 16.3576 6.5454 16.9394 7.85449 16.9394H10.7151C11.006 16.9394 11.2484 17.1818 11.2484 17.4727C11.2484 17.7636 11.006 18.0061 10.7151 18.0061H7.85449C6.20601 18.0061 4.65449 17.2788 3.63631 15.9697C3.3454 15.5818 3.10297 15.1455 2.90903 14.7091L0.630246 24.4061C0.339337 25.7152 0.630246 27.0727 1.45449 28.0909C2.27873 29.1576 3.53934 29.7394 4.84843 29.7394H27.1515C28.509 29.7394 29.7212 29.1576 30.5454 28.0909C31.4181 27.0242 31.709 25.7152 31.4181 24.4061ZM20.2666 18.7818C20.2666 19.6545 19.5878 20.3333 18.7151 20.3333H13.2848C12.4121 20.3333 11.7333 19.6545 11.7333 18.7818V15.8242C11.7333 14.9515 12.4121 14.2727 13.2848 14.2727H18.6666C19.5393 14.2727 20.2181 14.9515 20.2181 15.8242L20.2666 18.7818ZM18.7151 15.2909H13.2848C12.9939 15.2909 12.7515 15.5333 12.7515 15.8242V18.7818C12.7515 19.0727 12.9939 19.3152 13.2848 19.3152H18.6666C18.9575 19.3152 19.1999 19.0727 19.1999 18.7818V15.8242C19.1999 15.5333 18.9575 15.2909 18.7151 15.2909ZM18.7151 15.2909H13.2848C12.9939 15.2909 12.7515 15.5333 12.7515 15.8242V18.7818C12.7515 19.0727 12.9939 19.3152 13.2848 19.3152H18.6666C18.9575 19.3152 19.1999 19.0727 19.1999 18.7818V15.8242C19.1999 15.5333 18.9575 15.2909 18.7151 15.2909ZM18.7151 15.2909H13.2848C12.9939 15.2909 12.7515 15.5333 12.7515 15.8242V18.7818C12.7515 19.0727 12.9939 19.3152 13.2848 19.3152H18.6666C18.9575 19.3152 19.1999 19.0727 19.1999 18.7818V15.8242C19.1999 15.5333 18.9575 15.2909 18.7151 15.2909Z" fill="#388FF3"/>
</g>
</svg>
