<svg width="32" height="32" viewBox="0 0 32 32" fill="none" xmlns="http://www.w3.org/2000/svg">
<g id="Component 1">
<path id="XMLID_894_" d="M13 17H18.004V13H7.542L9.058 9.606C9.217 9.238 9.578 9 9.978 9H16.148C15.955 7.989 15.952 7.032 16.152 6H9.978C8.376 6 6.933 6.952 6.302 8.424L4.134 13.484C2.871 14.157 2 15.472 2 17V19C2 20.474 2.81 21.75 4 22.444V26C4 27.103 4.897 28 6 28H9C10.103 28 11 27.103 11 26V23H18.004V19H13C12.448 19 12 18.552 12 18C12 17.448 12.448 17 13 17ZM7.5 20.5C6.119 20.5 5 19.381 5 18C5 16.619 6.119 15.5 7.5 15.5C8.881 15.5 10 16.619 10 18C10 19.381 8.881 20.5 7.5 20.5Z" fill="#388FF3"/>
<path id="XMLID_948_" d="M29.922 6.477C29.509 4.11 27.523 2.417 26.385 2.072C26.193 2.014 26.004 2.166 26.004 2.366V7.383C26.004 7.762 25.79 8.108 25.451 8.277L24.451 8.777C24.169 8.918 23.838 8.918 23.557 8.777L22.557 8.277C22.218 8.108 22.004 7.761 22.004 7.383V2.366C22.004 2.165 21.814 2.013 21.621 2.072C20.482 2.425 18.497 4.144 18.087 6.491C17.735 8.507 18.491 10.484 19.684 11.678C19.88 11.874 20.003 12.127 20.003 12.404V26.001C20.003 28.209 21.793 29.999 24.001 29.999C26.209 29.999 27.999 28.209 27.999 26.001L28.002 12.409C28.002 12.129 28.129 11.871 28.327 11.672C29.528 10.472 30.273 8.486 29.922 6.477ZM24.009 27.5C23.181 27.5 22.509 26.828 22.509 26C22.509 25.172 23.181 24.5 24.009 24.5C24.837 24.5 25.509 25.172 25.509 26C25.509 26.828 24.837 27.5 24.009 27.5Z" fill="#388FF3"/>
</g>
</svg>
