<svg width="30" height="30" viewBox="0 0 30 30" fill="none" xmlns="http://www.w3.org/2000/svg">
<g id="Icon">
<path id="Vector" fill-rule="evenodd" clip-rule="evenodd" d="M6.95735 27.9333C8.30802 24.44 11.7 21.96 15.6667 21.96C19.6334 21.96 23.0254 24.44 24.376 27.9333C24.4947 28.24 24.4547 28.5867 24.268 28.8587C24.0814 29.1307 23.7734 29.2933 23.4427 29.2933H7.89068C7.56135 29.2933 7.25202 29.1307 7.06535 28.8587C6.88002 28.5867 6.83868 28.24 6.95735 27.9333Z" fill="#388FF3"/>
<path id="Vector_2" fill-rule="evenodd" clip-rule="evenodd" d="M15.976 23.1773C15.856 23.716 15.3214 24.056 14.7827 23.936C14.244 23.816 13.904 23.2813 14.024 22.7427C14.024 22.7427 14.936 18.6333 14.0227 14.3867C13.436 11.6627 12.092 8.86533 9.1627 7.15733C8.6867 6.87867 8.52537 6.26667 8.8027 5.78933C9.08137 5.31333 9.69337 5.152 10.1707 5.42933C13.6414 7.45467 15.284 10.7373 15.9774 13.9653C16.984 18.6467 15.976 23.1773 15.976 23.1773Z" fill="#388FF3"/>
<path id="Vector_3" fill-rule="evenodd" clip-rule="evenodd" d="M16.4067 17.824C16.2973 18.3653 15.7693 18.716 15.2293 18.6067C14.688 18.4973 14.3373 17.9707 14.4467 17.4293C14.4467 17.4293 14.8653 15.1 17.8973 12.2333C18.2987 11.8547 18.932 11.872 19.3107 12.2733C19.6907 12.6747 19.672 13.308 19.272 13.6867C16.8253 16 16.4067 17.824 16.4067 17.824Z" fill="#388FF3"/>
<path id="Vector_4" fill-rule="evenodd" clip-rule="evenodd" d="M18.0467 14.8013C17.9493 14.54 17.6133 13.552 17.5867 12.4067C17.552 10.924 18.0187 9.22533 19.8773 8.27333C23.1987 6.57467 27.2893 7.76933 29.088 9.84133C29.308 10.0947 29.3867 10.4387 29.2973 10.7613C29.2093 11.084 28.9667 11.34 28.6493 11.4467C28.6493 11.4467 27.012 12.0427 25.8947 14.2773C25.3427 15.38 23.9333 16.564 22.436 16.9733C21.6093 17.1987 20.7653 17.1947 20.0107 16.8907C19.752 16.7867 19.5 16.6467 19.264 16.4667C19.6227 16.0173 20.064 15.5307 20.6053 15.02C21.0053 14.6413 21.024 14.008 20.644 13.6067C20.2653 13.2053 19.632 13.188 19.2307 13.5667C18.78 13.992 18.388 14.4053 18.0467 14.8013Z" fill="#388FF3"/>
<path id="Vector_5" fill-rule="evenodd" clip-rule="evenodd" d="M11.3653 12.852C10.8507 13.0827 10.3547 13.1907 9.88534 13.2107C8.44401 13.2707 7.16667 12.472 6.16134 11.3493C5.20001 10.2747 4.48934 8.92667 4.09334 8.072C3.22401 6.20133 0.922673 3.652 0.922673 3.652C0.708007 3.41333 0.62134 3.08667 0.68934 2.77333C0.75734 2.46 0.970673 2.19733 1.26401 2.068C5.17201 0.353333 9.91734 -0.0986668 13.6253 2.87067C15.3493 4.252 15.5773 6.00933 15.208 7.63067C14.7187 9.78 13.084 11.6453 13.084 11.6453C13.072 11.6587 13.0587 11.672 13.0467 11.6853C12.1053 9.50933 10.5773 7.5 8.17067 6.096C7.69334 5.81867 7.08134 5.98 6.80267 6.456C6.52534 6.93333 6.68667 7.54533 7.16267 7.824C9.30001 9.07067 10.5947 10.8973 11.3653 12.852Z" fill="#388FF3"/>
</g>
</svg>
