<svg width="32" height="32" viewBox="0 0 32 32" fill="none" xmlns="http://www.w3.org/2000/svg">
<g id="Component 1">
<path id="Vector" d="M17.2035 2.39999H13.5021C13.0601 2.39999 12.7021 2.75807 12.7021 3.19999V4.40671H10.2445C9.80254 4.40671 9.44446 4.76479 9.44446 5.20671C9.44446 5.64863 9.80254 6.00671 10.2445 6.00671H20.4608C20.9027 6.00671 21.2608 5.64863 21.2608 5.20671C21.2608 4.76479 20.9027 4.40671 20.4608 4.40671H18.0032V3.19999C18.0035 2.75807 17.6454 2.39999 17.2035 2.39999ZM16.4035 4.40671H14.3024V3.99999H16.4035V4.40671Z" fill="#388FF3"/>
<path id="Vector_2" d="M7.58108 7.12544C7.44924 7.40576 7.49084 7.73664 7.68764 7.97568L9.76316 10.4918L10.8092 20.0035C10.8048 20.0102 9.5238 22.6262 9.52188 22.6307C9.48348 22.7126 9.45916 22.807 9.44796 22.8947L8.89404 28.7248C8.87292 28.9491 8.94716 29.1718 9.09884 29.3386C9.25052 29.5053 9.46556 29.6003 9.69084 29.6003H21.0153C21.2406 29.6003 21.4556 29.5053 21.6073 29.3386C21.759 29.1718 21.8332 28.9491 21.8121 28.7248L21.2576 22.8944C21.2473 22.8064 21.2208 22.7098 21.1836 22.6304C21.1836 22.6304 19.8992 20.015 19.896 20.0029L20.1776 17.4253L21.5459 16.7507C22.6416 16.2102 23.4224 15.169 23.6339 13.9651L24.4611 9.2592C24.5744 8.61408 24.398 7.95712 23.9769 7.45568C23.5561 6.95424 22.9388 6.66656 22.2841 6.66656H20.4608H8.30492C7.99516 6.66656 7.71324 6.84544 7.58108 7.12544ZM21.1782 8.26656H22.2841C22.5315 8.26656 22.6832 8.4032 22.7516 8.48448C22.8198 8.56576 22.9283 8.73856 22.8854 8.9824L22.0582 13.688C21.9344 14.3914 21.478 15 20.838 15.3158L20.3833 15.5402L21.1782 8.26656ZM19.5686 8.26656L19.2147 11.5062C19.0915 11.4406 18.974 11.3565 18.8348 11.2554C18.423 10.9558 17.8595 10.5459 16.8342 10.5459C15.8092 10.5459 15.2454 10.9558 14.8339 11.2554C14.4883 11.5066 14.2796 11.6586 13.7747 11.6586C13.2707 11.6586 13.062 11.5066 12.7164 11.2554C12.4051 11.0288 12.0057 10.7395 11.3859 10.6118L11.3273 10.0797C11.31 9.92512 11.2483 9.77856 11.1491 9.65824L10.0012 8.26656H19.5686Z" fill="#388FF3"/>
</g>
</svg>
