<svg width="32" height="32" viewBox="0 0 32 32" fill="none" xmlns="http://www.w3.org/2000/svg">
<g id="Component 1" clip-path="url(#clip0_735_1697)">
<path id="Vector" d="M2.113 19.9438C1.32749 19.9442 0.571554 19.6442 0 19.1054L0 21.9195C0 22.2534 0.132625 22.5735 0.368698 22.8096C0.604771 23.0457 0.924955 23.1783 1.25881 23.1783H17.1784V19.9438H2.113Z" fill="#388FF3"/>
<path id="Vector_2" d="M17.1784 24.1562H12.4447V26.3043C12.4447 26.9881 12.4447 28.5894 9.09571 28.5894H8.08321C8.01853 28.5886 7.95434 28.6008 7.89437 28.625C7.83439 28.6492 7.77983 28.6852 7.73383 28.7306C7.68783 28.7761 7.65131 28.8303 7.62638 28.89C7.60146 28.9497 7.58862 29.0137 7.58862 29.0784C7.58862 29.1431 7.60146 29.2071 7.62638 29.2668C7.65131 29.3265 7.68783 29.3807 7.73383 29.4262C7.77983 29.4717 7.83439 29.5076 7.89437 29.5318C7.95434 29.5561 8.01853 29.5682 8.08321 29.5674H17.2217C17.1931 29.401 17.1786 29.2325 17.1784 29.0636V24.1562Z" fill="#388FF3"/>
<path id="Vector_3" d="M20.1657 4.36876H30.0125C30.456 4.36831 30.8939 4.46721 31.2942 4.6582L31.2977 2.20945C31.298 2.04397 31.2656 1.88005 31.2024 1.72709C31.1393 1.57413 31.0466 1.43512 30.9297 1.31802C30.8127 1.20091 30.6739 1.10801 30.521 1.04463C30.3681 0.98125 30.2043 0.948631 30.0388 0.948639H1.25991C1.09457 0.948639 0.930839 0.981211 0.778082 1.04449C0.625324 1.10778 0.486529 1.20053 0.369622 1.31746C0.252716 1.43439 0.159989 1.5732 0.0967357 1.72598C0.0334829 1.87875 0.000943753 2.04248 0.000976587 2.20783V16.8536C0.00096838 17.1309 0.0555924 17.4056 0.16173 17.6618C0.267867 17.9181 0.423439 18.1509 0.619563 18.3471C0.815687 18.5432 1.04852 18.6988 1.30477 18.8049C1.56102 18.9111 1.83567 18.9657 2.11304 18.9657H17.1784V7.35626C17.1792 6.56422 17.4942 5.80484 18.0543 5.24476C18.6143 4.68468 19.3737 4.36964 20.1657 4.36876Z" fill="#388FF3"/>
<path id="Vector_4" d="M30.0125 5.36874H20.1657C19.6386 5.36874 19.1331 5.57814 18.7603 5.95087C18.3876 6.3236 18.1782 6.82913 18.1782 7.35624V29.0637C18.1782 29.5909 18.3876 30.0964 18.7603 30.4691C19.1331 30.8418 19.6386 31.0512 20.1657 31.0512H30.0125C30.5397 31.0512 31.0452 30.8418 31.4179 30.4691C31.7906 30.0964 32 29.5909 32 29.0637V7.35624C32 6.82913 31.7906 6.3236 31.4179 5.95087C31.0452 5.57814 30.5397 5.36874 30.0125 5.36874ZM25.7088 29.8052H24.4697C24.3371 29.8052 24.2099 29.7526 24.1161 29.6588C24.0223 29.565 23.9697 29.4379 23.9697 29.3052C23.9697 29.1726 24.0223 29.0455 24.1161 28.9517C24.2099 28.8579 24.3371 28.8052 24.4697 28.8052H25.7088C25.8414 28.8052 25.9686 28.8579 26.0623 28.9517C26.1561 29.0455 26.2088 29.1726 26.2088 29.3052C26.2088 29.4379 26.1561 29.565 26.0623 29.6588C25.9686 29.7526 25.8414 29.8052 25.7088 29.8052ZM27.641 7.83787H22.5375C22.4049 7.83787 22.2777 7.78519 22.184 7.69142C22.0902 7.59765 22.0375 7.47048 22.0375 7.33787C22.0375 7.20526 22.0902 7.07808 22.184 6.98432C22.2777 6.89055 22.4049 6.83787 22.5375 6.83787H27.6412C27.7738 6.83787 27.9009 6.89055 27.9947 6.98432C28.0885 7.07808 28.1412 7.20526 28.1412 7.33787C28.1412 7.47048 28.0885 7.59765 27.9947 7.69142C27.9009 7.78519 27.7738 7.83787 27.6412 7.83787H27.641Z" fill="#388FF3"/>
</g>
<defs>
<clipPath id="clip0_735_1697">
<rect width="32" height="32" fill="white"/>
</clipPath>
</defs>
</svg>
