<svg width="30" height="32" viewBox="0 0 30 32" fill="none" xmlns="http://www.w3.org/2000/svg">
<g id="Group">
<g id="Layer_14">
<g id="Group_2">
<path id="Vector" d="M9.58972 2.40538C9.33839 2.50711 9.11105 2.65073 8.90759 2.8302C9.05719 4.04486 9.66153 5.16378 10.589 5.90575C10.6488 5.95362 10.7326 5.98354 10.8104 5.98354C11.0078 5.98354 11.1694 5.82197 11.1634 5.61856C11.1634 5.51085 11.1155 5.41511 11.0377 5.34928C10.1761 4.65518 9.64358 3.56619 9.58972 2.40538Z" fill="#388FF3"/>
<path id="Vector_2" d="M12.8447 8.60435H17.3204V9.44207H12.8447V8.60435Z" fill="#388FF3"/>
<path id="Vector_3" d="M12.2345 0.382927H13.4372V1.14883H12.2345V0.382927Z" fill="#388FF3"/>
<path id="Vector_4" d="M2.88819 3.72776H7.48354C7.90835 2.40538 9.129 1.51386 10.5172 1.50788H11.5164V0.0239363V0H4.65932C3.29506 0 2.18811 1.10695 2.18811 2.47121V3.72776H2.88819Z" fill="#388FF3"/>
<path id="Vector_5" d="M17.8171 7.88632V4.96635H12.3601V7.88632H12.4858H17.6795H17.8171Z" fill="#388FF3"/>
<path id="Vector_6" d="M26.5351 19.8414C26.3796 19.6918 25.6795 19.4046 24.4529 19.4046C23.2263 19.4046 22.5262 19.6919 22.3706 19.8414C22.5262 19.991 23.2263 20.2782 24.4529 20.2782C25.6795 20.2782 26.3796 19.991 26.5351 19.8414Z" fill="#388FF3"/>
<path id="Vector_7" d="M11.5045 27.0935H18.5292V20.015C18.5292 19.9791 18.5292 19.9432 18.5352 19.9073C18.0625 19.2251 17.3325 18.2618 16.2195 16.8915C14.8493 15.2162 13.4671 13.6365 13.0722 13.1877C11.4566 13.2715 10.1821 14.5999 10.1702 16.2214C10.218 16.5804 10.6668 20.2064 10.6668 21.4869C10.6668 22.528 10.224 25.442 10.1702 25.7831C10.1821 26.5131 10.7745 27.0935 11.5045 27.0935Z" fill="#388FF3"/>
<path id="Vector_8" d="M3.19935 4.44579L2.50525 9.81303H7.23224L6.53814 4.44579H5.95176V8.90954C5.95176 9.10701 5.79019 9.26853 5.59276 9.26853C5.39534 9.26853 5.23377 9.10696 5.23377 8.90954V4.44579H4.39007V8.90954C4.39007 9.10701 4.2285 9.26853 4.03108 9.26853C3.83361 9.26853 3.67209 9.10696 3.67209 8.90954V4.44579H3.19935Z" fill="#388FF3"/>
<path id="Vector_9" d="M20.6474 18.7943C20.0191 19.0457 19.5703 19.3508 19.3669 19.656C19.3549 19.6739 19.3429 19.6919 19.337 19.7098C19.331 19.7098 19.331 19.7098 19.331 19.7158C19.325 19.7338 19.313 19.7457 19.307 19.7637H19.301L19.2831 19.8175H19.2771L19.2592 19.8774V19.8894C19.2532 19.9013 19.2532 19.9193 19.2532 19.9312C19.2532 19.9372 19.2472 19.9432 19.2472 19.9492V20.0031C19.2532 20.1347 19.2951 20.2544 19.3669 20.362C19.5703 20.6672 20.0191 20.9724 20.6474 21.2237C20.8867 21.3135 21.132 21.3972 21.3774 21.4631C21.6048 21.5229 21.8381 21.5827 22.0894 21.6246C22.8673 21.7742 23.6571 21.846 24.4529 21.8401C25.494 21.8401 26.4873 21.7264 27.337 21.511L29.4133 20.5177C29.4612 20.4699 29.503 20.416 29.5389 20.3621C29.7005 20.1467 29.7005 19.8595 29.5389 19.6441C29.3355 19.339 28.8867 19.0338 28.2585 18.7825C27.2473 18.3816 25.895 18.1662 24.4529 18.1662C23.7528 18.1662 23.0527 18.22 22.3586 18.3277C22.1013 18.3696 21.856 18.4235 21.6227 18.4773C21.2876 18.5609 20.9645 18.6627 20.6474 18.7943ZM24.4529 18.6866C25.8531 18.6866 27.2711 19.0396 27.2711 19.8414C27.2711 20.6432 25.853 20.9962 24.4529 20.9962C23.0527 20.9962 21.6347 20.6373 21.6347 19.8414C21.6347 19.0456 23.0527 18.6866 24.4529 18.6866Z" fill="#388FF3"/>
<path id="Vector_10" d="M24.4529 22.5699C23.663 22.5699 22.8672 22.5041 22.0894 22.3724C21.838 22.3305 21.5927 22.2767 21.3653 22.2168C20.4678 21.9894 19.7378 21.6664 19.2472 21.2715V28.8885C19.2472 29.2834 19.7199 29.7142 20.5277 30.0553L20.6474 30.1032C20.9346 30.2169 21.2337 30.3126 21.5329 30.3844C22.3048 30.5759 23.0946 30.6895 23.8905 30.7135V23.4016C23.8905 23.264 23.9683 23.1383 24.0939 23.0785L25.1949 22.552C24.9495 22.5639 24.7042 22.5699 24.4529 22.5699Z" fill="#388FF3"/>
<path id="Vector_11" d="M24.6085 23.629V32L25.9369 31.3657L29.6587 29.5826V21.2715C29.168 21.6664 28.444 21.9896 27.5585 22.2169L24.6085 23.629Z" fill="#388FF3"/>
<path id="Vector_12" d="M20.1149 16.6522C20.2106 16.6342 20.2824 16.5505 20.2884 16.4547C20.3303 16.0359 20.3542 15.623 20.3542 15.2161C20.3542 14.187 20.1807 13.2236 19.5524 12.5116C18.9241 11.7995 17.9608 11.4525 16.5846 11.4166C16.5247 11.4106 16.4649 11.4346 16.423 11.4764C16.3931 11.5064 16.3691 11.5423 16.3572 11.5842C16.4888 11.8534 17.165 12.8587 18.1522 14.187C19.1395 15.5154 19.8755 16.4308 20.1149 16.6522Z" fill="#388FF3"/>
<path id="Vector_13" d="M7.29808 28.0269C7.30407 27.985 7.99218 23.5093 7.99218 22.0434C7.99218 20.2363 7.30407 14.7374 7.29808 14.6776C7.2921 14.6656 7.2921 14.6477 7.2921 14.6357C7.2921 13.8519 7.47162 13.08 7.81266 12.3799L7.35792 10.531H2.39157L1.80518 13.5647L0.351159 27.8354C0.291319 28.3859 0.470841 28.9364 0.8418 29.3433C1.21276 29.7561 1.73936 29.9895 2.28984 29.9895H8.06394C7.56731 29.4809 7.29204 28.7928 7.29204 28.0808C7.2921 28.0628 7.2921 28.0448 7.29808 28.0269Z" fill="#388FF3"/>
<path id="Vector_14" d="M18.5292 28.8885V27.8115H11.5045C10.3736 27.8055 9.45812 26.8901 9.45213 25.7591C9.45213 25.7412 9.45213 25.7232 9.45812 25.7053C9.4641 25.6754 9.94876 22.516 9.94876 21.4869C9.94876 20.2124 9.45812 16.3291 9.45812 16.2872C9.45213 16.2752 9.45213 16.2573 9.45213 16.2453C9.45812 14.163 11.1455 12.4757 13.2278 12.4697C13.3295 12.4697 13.4312 12.5116 13.497 12.5894C13.515 12.6073 15.1545 14.4562 16.7761 16.4368C17.7095 17.5797 18.3796 18.4533 18.8643 19.1294C19.361 18.5131 20.3722 18.0165 21.7005 17.7293C21.8621 16.1915 22.0356 14.8273 22.0595 14.6118C22.0416 12.1526 20.055 10.172 17.5958 10.16H12.4799C10.8524 10.16 9.35644 11.0456 8.57258 12.4697C8.36314 12.8466 8.20761 13.2536 8.11785 13.6724C8.04604 13.9835 8.01013 14.2947 8.01013 14.6118C8.06997 15.0545 8.71021 20.2303 8.71021 22.0434C8.71021 23.5153 8.07596 27.6859 8.01013 28.1107C8.0221 28.7988 8.38109 29.439 8.96149 29.804C9.22479 29.9716 9.51796 30.0733 9.82315 30.1091L10.0505 30.1211H19.2173C18.7745 29.7561 18.5292 29.3373 18.5292 28.8885ZM15.6331 11.6081C15.6391 11.3568 15.7468 11.1174 15.9323 10.9499C16.1118 10.7764 16.3511 10.6866 16.6025 10.6986C18.1881 10.7405 19.3309 11.1832 20.0849 12.0389C21.1439 13.2296 21.1559 14.899 21.0063 16.5206C20.9584 17.0052 20.5516 17.3763 20.0669 17.3763H19.9772C19.8036 17.3583 19.5882 17.3404 17.5897 14.6478C17.0871 13.9716 16.6204 13.3194 16.2733 12.8048C15.6272 11.8414 15.6272 11.7337 15.6331 11.6081Z" fill="#388FF3"/>
</g>
</g>
</g>
</svg>
