<svg width="39" height="20" viewBox="0 0 39 20" fill="none" xmlns="http://www.w3.org/2000/svg">
<g id="Group">
<path id="Vector" d="M13.2993 4.78964C8.22417 3.57041 4.67749 6.46773 2.49593 3.20989C2.4894 3.19676 2.48287 3.19021 2.47634 3.1771C2.41756 3.08534 2.49593 2.95424 2.60043 2.98045C7.0942 4.05549 7.82575 3.38687 9.71339 3.61629C11.4573 3.82605 13.2993 4.78964 13.2993 4.78964Z" fill="#16191D"/>
<path id="Vector_2" d="M14.1941 5.60904C9.7264 4.94699 6.55855 8.29659 4.16797 5.72048C4.16144 5.71393 4.15491 5.70082 4.14185 5.69427C4.07653 5.62216 4.12225 5.49106 4.22022 5.49762C8.30251 5.79914 9.26265 5.07809 10.9414 5.00599C12.5089 4.94044 14.1941 5.60904 14.1941 5.60904Z" fill="#16191D"/>
<path id="Vector_3" d="M15.0237 6.66452C11.1242 6.13357 9.45222 9.64705 6.2909 7.49701C6.28437 7.49046 6.27784 7.4839 6.26478 7.4708C6.19946 7.4118 6.21906 7.24138 6.3105 7.24138C9.76573 7.24793 10.6671 6.44165 12.1237 6.26468C14.0963 6.02868 15.0237 6.66452 15.0237 6.66452Z" fill="#16191D"/>
<path id="Vector_4" d="M16.7806 7.82466C14.7427 8.04097 15.0628 9.67972 12.829 9.31265C12.5351 9.26675 12.6004 9.05699 12.7311 9.01767C14.6057 8.48016 14.6057 8.11963 15.2784 7.85087C15.9185 7.60834 16.7806 7.82466 16.7806 7.82466Z" fill="#16191D"/>
<path id="Vector_5" d="M15.8595 7.32007C12.9203 7.37906 12.1692 9.49634 9.69366 8.80805C9.31482 8.70316 9.44546 8.41474 9.64794 8.38853C12.4827 7.93624 12.6198 7.51672 13.6714 7.26762C14.6576 7.03165 15.8595 7.32007 15.8595 7.32007Z" fill="#16191D"/>
<path id="Vector_6" d="M14.181 4.78323C14.1613 4.816 14.1156 4.82255 14.083 4.80944C13.4756 4.46203 12.9074 4.05561 12.2543 3.60988C11.6402 3.19691 10.3208 2.63318 7.57752 2.76428C6.27119 2.82983 4.28558 3.09859 2.23464 1.68926C1.73823 1.35495 1.23529 0.784665 0.974028 0.253718C0.947903 0.207826 0.934841 0.148828 0.928309 0.08983C0.921778 0.0308319 0.98709 -0.0150415 1.04589 0.00461854C6.12097 2.04978 7.57099 1.25008 10.765 1.99079C12.0778 2.29888 13.7041 4.21295 14.1745 4.69145C14.2006 4.71113 14.2006 4.75045 14.181 4.78323Z" fill="#16191D"/>
<path id="Vector_7" d="M18.5965 15.9922C18.5377 16.1756 18.5507 16.3921 18.4333 16.5494C18.2894 16.7592 17.9368 16.7788 17.7669 16.5887C17.6559 16.4904 17.6559 16.3331 17.6167 16.2085C17.362 15.0876 17.1138 13.9666 16.8656 12.8391C16.8395 12.7606 16.8656 12.7081 16.9439 12.6754C17.0681 12.6425 17.0812 12.7802 17.1202 12.859C17.4011 13.6259 17.6624 14.3993 17.9499 15.1662C18.0412 15.4285 18.3483 15.3432 18.5507 15.4089C18.7663 15.5464 18.6356 15.8021 18.5965 15.9922Z" fill="#16191D"/>
<path id="Vector_8" d="M18.9294 12.8984C18.9557 12.9705 18.9164 13.0557 18.8381 13.0687C18.7924 13.0753 18.7531 13.0687 18.7401 13.0032C18.5506 12.623 18.3873 12.2232 18.1914 11.8431C17.9367 11.6266 17.6689 11.4038 17.5122 11.0957C17.2313 10.5976 17.2574 9.94861 17.5709 9.47009C17.5969 9.43731 17.6166 9.39798 17.6428 9.3652C17.6885 9.29967 17.7865 9.31277 17.8125 9.39143C17.8321 9.45043 17.8452 9.50941 17.8714 9.56186C18.224 10.6697 18.5638 11.7906 18.9294 12.8984Z" fill="#16191D"/>
<path id="Vector_9" d="M18.9818 7.62161C18.9688 7.91658 18.8578 8.1919 18.7859 8.47376C18.7793 8.49342 18.7729 8.50653 18.7532 8.51308C18.7076 8.53276 18.6619 8.49998 18.6619 8.4541C18.6683 8.06735 18.8055 7.68716 18.7076 7.30696C18.5639 6.78912 18.2111 6.33683 18.1851 5.78621C18.1719 5.49779 18.2438 5.21592 18.3027 4.93406C18.0935 4.49487 17.9956 3.99012 18.1065 3.51162C18.1262 3.45262 18.1328 3.45262 18.1654 3.49849C18.368 3.79349 18.6356 4.08846 18.6356 4.4752C18.6096 5.02582 18.3091 5.57644 18.5116 6.12707C18.6749 6.6187 19.0275 7.07754 18.9818 7.62161Z" fill="#16191D"/>
<path id="Vector_10" d="M20.7062 5.72065C20.6931 6.4417 20.0661 7.01854 20.138 7.75271C20.138 8.03458 20.2097 8.323 20.1771 8.60486C20.1314 8.85395 19.8505 8.89328 19.6481 8.95228C19.5305 9.00473 19.3999 8.86707 19.4326 8.74907C19.4326 7.89692 19.4326 7.03822 19.4326 6.18607C19.4456 5.8321 19.5305 5.45845 19.7722 5.18971C19.9224 5.01271 20.0791 4.83574 20.2424 4.65874C20.275 4.6194 20.2947 4.57353 20.2882 4.52764C20.275 4.37032 20.2424 4.23267 20.3143 4.04912C20.4253 3.8197 20.5691 3.68204 20.7192 3.53128C20.7454 3.50507 20.7845 3.51817 20.7911 3.55094C20.8957 4.01635 20.7911 4.52109 20.5755 4.94061C20.6278 5.18971 20.7062 5.4519 20.7062 5.72065Z" fill="#16191D"/>
<path id="Vector_11" d="M28.9556 3.08524C28.0673 3.33432 27.6558 3.63584 27.3031 3.91771C27.3031 3.91771 28.1065 3.63584 29.2625 3.51131C32.5415 3.15079 32.7308 4.37657 36.4017 2.95413C36.5257 2.93447 36.5584 3.03279 36.5257 3.08524C36.0359 3.93739 35.4937 4.8813 33.4428 4.96651C31.209 5.0583 30.0464 4.16025 27.9497 4.42901C26.6108 4.59944 25.9184 5.01896 25.5329 5.27461C30.1051 4.39623 29.7263 6.41518 34.2069 5.34016C34.2592 5.32704 34.3181 5.31393 34.3704 5.32049C34.4878 5.33359 34.5337 5.47782 34.4618 5.55648C34.4291 5.5958 34.3834 5.63514 34.3508 5.67446C33.763 6.31029 33.1423 7.00513 31.0522 6.84781C28.5964 6.66426 28.4397 5.13696 23.7499 6.30374C28.2958 6.28408 28.2175 7.77862 31.6401 7.33288C31.7577 7.31978 31.8295 7.46399 31.7381 7.54265C31.6858 7.58852 31.6269 7.62786 31.5813 7.66719C31.0654 8.07359 30.3141 8.57177 28.9033 8.28335C25.9641 7.66719 26.3365 6.44795 22.5546 7.11657C25.5003 7.19523 25.2979 8.34235 28.3221 8.62422C28.3221 8.62422 28.3221 8.62422 28.3285 8.62422C28.4918 8.64388 28.5376 8.86019 28.4004 8.95197C28.2958 9.02408 28.1782 9.07651 28.0673 9.1224C25.8597 9.9811 24.8341 7.20178 22.1235 7.82451C24.0634 7.99493 23.9066 8.65043 25.6571 9.12895C25.8465 9.1814 25.827 9.43705 25.6179 9.45671C23.5409 9.66647 23.7238 8.26369 22.4501 8.21125C22.1105 8.19814 21.7969 8.38169 21.6271 8.68322C21.1242 9.56158 21.3266 10.3941 21.2939 10.8464C21.4115 11.3183 21.588 11.7773 21.5944 12.2753C21.601 12.6228 21.5683 12.9833 21.4572 13.3176C21.2482 14.0124 21.0392 14.7073 20.8237 15.4087C20.778 15.5528 20.7844 15.7102 20.8367 15.8478C20.915 16.0577 20.9936 16.2609 21.0262 16.4837C21.1046 16.8573 21.0523 17.244 20.9217 17.6046C20.6474 18.2797 20.3729 18.9549 20.0986 19.6366C20.0464 19.7611 20.0073 19.8924 19.9157 19.9972C19.7787 20.0234 19.7917 19.8465 19.8047 19.7611C20.0726 17.2374 20.3272 14.7138 20.5885 12.1901L20.7976 11.5871C20.3861 11.941 20.2032 12.4326 19.9354 12.8719C19.9027 12.9767 19.746 12.9963 19.7134 12.8785C19.7394 12.4392 19.7981 12.0001 19.8113 11.5608C19.8504 11.1151 19.844 10.6628 19.9943 10.2368C20.164 9.80412 20.4905 9.45671 20.7453 9.08308C21.1633 8.54556 21.4768 7.93594 21.6924 7.29355C21.823 6.90026 22.0974 6.55284 22.4501 6.33652C23.6715 5.56303 24.3834 4.89441 25.5395 4.01605C26.6042 3.20977 27.4272 2.58048 27.8975 2.3904C30.0464 1.50547 34.3638 2.45595 38.0607 0.0437099C38.1521 -0.00873479 38.2697 0.0961371 38.1979 0.2469C37.8517 1.12528 37.4402 1.68901 36.4604 2.17409C33.6388 3.57031 30.399 2.67882 28.9556 3.08524Z" fill="#16191D"/>
<path id="Vector_12" d="M20.3862 4.59956C20.3862 4.59956 20.1444 4.17349 19.5566 4.12104C19.1124 4.08172 18.91 4.23249 18.91 4.23249C18.91 4.23249 19.4456 4.07517 19.8637 4.4488C20.2816 4.82243 20.053 5.14364 20.053 5.14364C20.053 5.14364 20.5102 4.87488 20.3862 4.59956Z" fill="#16191D"/>
<path id="Vector_13" d="M20.3599 4.54074C20.3599 4.54074 20.053 4.213 19.4259 4.18677C19.4259 4.18677 19.7981 4.27853 19.844 4.48174C19.9223 4.8685 19.5828 5.38634 19.5174 5.63543C19.4652 5.8583 20.3599 4.54074 20.3599 4.54074Z" fill="#16191D"/>
</g>
</svg>
