<svg width="30" height="32" viewBox="0 0 30 32" fill="none" xmlns="http://www.w3.org/2000/svg">
<g id="Group">
<path id="Vector" d="M29.8697 5.10669C28.9877 3.58244 27.7199 2.30406 26.2039 1.40981C24.6402 0.4875 22.8495 0 21.025 0C19.2005 0 17.4096 0.4875 15.846 1.40981C14.3299 2.30412 13.0622 3.5825 12.1802 5.10669C12.0001 5.41788 12.0138 5.8045 12.2154 6.10213L16.2474 12.0536C16.2707 12.0519 16.294 12.05 16.3179 12.05H19.2221L18.6293 10.2714C18.4656 9.78025 18.731 9.24931 19.2222 9.08556C19.7135 8.92194 20.2444 9.18738 20.4081 9.6785L21.025 11.5292L21.6419 9.6785C21.8055 9.18731 22.3364 8.92181 22.8277 9.08556C23.3189 9.24931 23.5844 9.78019 23.4207 10.2714L22.8279 12.05H25.7321C25.7559 12.05 25.7792 12.0518 25.8027 12.0536L29.8345 6.10213C30.0361 5.8045 30.0498 5.41788 29.8697 5.10669Z" fill="#388FF3"/>
<path id="Vector_2" d="M17.075 30.0584C17.075 31.129 17.946 32 19.0166 32H23.0333C24.104 32 24.975 31.129 24.975 30.0584V13.925H17.075V30.0584Z" fill="#388FF3"/>
<path id="Vector_3" d="M1.0083 11.9167H9.91249V21.0875H1.0083V11.9167Z" fill="#388FF3"/>
<path id="Vector_4" d="M0.00415039 30.0584C0.00415039 31.129 0.87515 32 1.94578 32H8.97503C10.0457 32 10.9167 31.129 10.9167 30.0584V22.9625H0.00415039V30.0584Z" fill="#388FF3"/>
<path id="Vector_5" d="M8.90833 1.94165C8.90833 1.00928 8.24301 0.306213 7.36083 0.306213C7.13776 0.306213 6.91214 0.351213 6.69033 0.440026L3.53414 1.70246C2.66664 2.04946 2.01245 3.01571 2.01245 3.95003V10.0417H8.90833V1.94165Z" fill="#388FF3"/>
</g>
</svg>
