<svg width="138" height="72" viewBox="0 0 138 72" fill="none" xmlns="http://www.w3.org/2000/svg">
<g id="logo">
<rect width="138" height="72" rx="10" fill="#388FF3"/>
<rect id="Rectangle 260" x="6.5" y="6.5" width="125" height="59" rx="4.5" stroke="white" stroke-width="5"/>
<g id="77.uz">
<path d="M41.4239 27.636L30.5159 48.66H23.9999L33.8639 29.76H23.9999V24H41.4239V27.636Z" fill="white"/>
<path d="M61.8145 27.636L50.9065 48.66H44.3905L54.2545 29.76H44.3905V24H61.8145V27.636Z" fill="white"/>
<path d="M66.0771 43.98C66.7011 43.428 67.4691 43.152 68.3811 43.152C69.2931 43.152 70.0611 43.428 70.6851 43.98C71.3331 44.532 71.6571 45.216 71.6571 46.032C71.6571 46.848 71.3331 47.532 70.6851 48.084C70.0611 48.636 69.2931 48.912 68.3811 48.912C67.4691 48.912 66.7011 48.636 66.0771 48.084C65.4531 47.532 65.1411 46.848 65.1411 46.032C65.1411 45.216 65.4531 44.532 66.0771 43.98Z" fill="white"/>
<path d="M93.8764 48.66H90.2044L89.7724 46.5C88.5484 48.108 86.6644 48.912 84.1204 48.912C81.5524 48.912 79.5964 48.108 78.2524 46.5C76.9084 44.892 76.2364 42.744 76.2364 40.056V30.66H81.8524V39.732C81.8524 42.228 82.9084 43.476 85.0204 43.476C87.1804 43.476 88.2604 42.192 88.2604 39.624V30.66H93.8764V48.66Z" fill="white"/>
<path d="M113.589 48.66H98.4693L98.5053 44.304L105.345 36.096H98.9733V30.66H113.265L113.229 35.016L106.389 43.224H113.589V48.66Z" fill="white"/>
</g>
</g>
</svg>
