<svg width="32" height="24" viewBox="0 0 32 24" fill="none" xmlns="http://www.w3.org/2000/svg">
<g id="_x31_8_Motorcycle">
<g id="Group">
<path id="Vector" d="M18.6767 5.49844C18.7967 5.35175 18.9301 5.22181 19.0734 5.10512C16.2655 4.53287 14.6211 5.71819 12.9901 7.58844C15.9982 7.90762 16.699 7.86919 18.6767 5.49844Z" fill="#388FF3"/>
<path id="Vector_2" d="M26.6399 12.9417C25.8292 12.9417 25.063 13.1281 24.3736 13.4519L23.3901 11.8916C25.2464 10.9318 26.6736 11.3387 28.4267 11.2418C29.0567 11.2418 29.61 10.8884 29.8766 10.3184C30.1433 9.74844 30.0566 9.09513 29.6533 8.61513L24.0466 1.92844C23.5366 1.32175 22.71 1.14513 22.0199 1.45175H22.0166L19.8 0.405067C19.47 0.248442 19.07 0.391755 18.9134 0.725067C18.7567 1.05838 18.9001 1.45507 19.2333 1.61175L21.0733 2.48175C20.8676 3.01638 20.9749 3.70844 21.41 4.19838L23.1767 6.20507C23.2867 6.32838 23.2834 6.51507 23.17 6.635C23.0633 6.74832 22.8934 6.76838 22.7633 6.68169L21.78 6.03838C21.11 5.59838 20.2167 5.73175 19.7 6.35169C17.27 9.26501 16.04 9.275 12.5267 8.875C11.1866 8.71832 10.1034 8.245 9.30675 7.465C7.98675 6.17169 6.40344 5.36832 4.73012 5.14507L2.2235 4.81176C1.26706 4.68007 0.406812 5.42907 0.406812 6.40175C0.406812 6.98507 0.723437 7.52182 1.2335 7.80507C2.53687 8.52838 6.92681 10.9684 8.58019 12.0251C8.97169 12.2749 9.30044 12.5602 9.58619 12.8658L8.5245 13.9871C7.636 13.3331 6.54275 12.9418 5.35681 12.9418C2.40337 12.9418 0 15.3451 0 18.3018C0 21.2551 2.40337 23.6584 5.35669 23.6584C8.31331 23.6584 10.7167 21.2551 10.7167 18.3018C10.7167 17.011 10.2583 15.8259 9.49612 14.8999L10.379 13.9675C11.2306 15.5583 11.2234 17.4123 11.0933 18.5985C10.9599 19.7849 11.8955 20.8152 13.08 20.8152H17.43C18.32 20.8152 19.1134 20.2152 19.3566 19.3585L20.4533 15.4752C20.7732 14.3411 21.4257 13.3658 22.2829 12.6363L23.2436 14.1603C22.0477 15.1439 21.2833 16.6348 21.2833 18.3018C21.2833 21.2551 23.6866 23.6585 26.6399 23.6585C29.5966 23.6585 31.9999 21.2551 31.9999 18.3018C32 15.3451 29.5966 12.9417 26.6399 12.9417ZM8.0495 18.3005C8.0495 19.7846 6.84219 20.9919 5.35806 20.9919C3.87369 20.9919 2.66631 19.7846 2.66631 18.3005C2.66631 16.8164 3.87362 15.6091 5.35806 15.6091C5.83256 15.6091 6.27806 15.7336 6.66562 15.95L5.68425 16.9864C5.57925 16.9603 5.47106 16.9424 5.35812 16.9424C4.60906 16.9424 3.99969 17.5516 3.99969 18.3004C3.99969 19.0494 4.60906 19.6585 5.35812 19.6585C6.10681 19.6585 6.71619 19.0493 6.71619 18.3004C6.71619 18.162 6.68925 18.0309 6.65056 17.905L7.63262 16.8679C7.89519 17.2834 8.0495 17.7738 8.0495 18.3005ZM26.6416 20.9919C25.1575 20.9919 23.9501 19.7846 23.9501 18.3005C23.9501 17.5853 24.2324 16.9361 24.6891 16.4535L25.4506 17.6616C25.3474 17.8529 25.2834 18.0683 25.2834 18.3005C25.2834 19.0493 25.8928 19.6586 26.6415 19.6586C27.3902 19.6586 27.9996 19.0494 27.9996 18.3005C27.9996 17.5516 27.3902 16.9424 26.6415 16.9424C26.6197 16.9424 26.5993 16.9479 26.5777 16.9489L25.8157 15.7399C26.0761 15.6557 26.3534 15.6091 26.6415 15.6091C28.1256 15.6091 29.3329 16.8164 29.3329 18.3005C29.333 19.7846 28.1256 20.9919 26.6416 20.9919Z" fill="#388FF3"/>
</g>
</g>
</svg>
