<svg width="32" height="32" viewBox="0 0 32 32" fill="none" xmlns="http://www.w3.org/2000/svg">
<g id="Component 1">
<path id="Vector" d="M30.4758 14.0116C30.2887 13.6997 28.4416 12.9019 28.4416 12.9019C28.7629 12.7359 28.9825 12.7016 28.9825 12.0155C28.9825 11.2669 28.9787 11.0174 28.4797 11.0174H26.7868C26.7799 11.0024 26.7724 10.9868 26.7655 10.9713C25.6727 8.58467 25.5261 7.98147 23.8961 7.1693C21.7098 6.08205 17.6109 6.02716 16.0041 6.02716C14.3972 6.02716 10.2983 6.08205 8.11385 7.1693C6.48203 7.98022 6.52258 8.39753 5.24448 10.9713C5.24448 10.9781 5.23138 10.9962 5.21952 11.0174H3.52471C3.02943 11.0174 3.02568 11.2669 3.02568 12.0155C3.02568 12.7016 3.24525 12.7359 3.5665 12.9019C3.5665 12.9019 1.78186 13.7621 1.53235 14.0116C1.28284 14.2611 1.03333 16.0077 1.03333 19.0018C1.03333 21.996 1.28284 24.9901 1.28284 24.9901H2.02763C2.02763 25.8634 2.15613 25.9882 2.5304 25.9882H7.52063C7.8949 25.9882 8.01966 25.8634 8.01966 24.9901H23.9885C23.9885 25.8634 24.1132 25.9882 24.4875 25.9882H29.6025C29.852 25.9882 29.9768 25.801 29.9768 24.9901H30.7253C30.7253 24.9901 30.9748 21.9336 30.9748 19.0018C30.9748 16.07 30.6629 14.3235 30.4758 14.0116ZM7.84874 16.8148C6.71271 16.939 5.57079 17.0028 4.42794 17.0057C3.15418 17.0057 3.11052 17.0874 3.02069 16.2921C2.9869 15.9281 2.99759 15.5613 3.05251 15.1999L3.0918 15.0096H3.27894C4.02748 15.0096 4.73048 15.0414 6.05789 15.4325C6.73304 15.6351 7.36805 15.953 7.93482 16.372C8.20679 16.5691 8.26917 16.7562 8.26917 16.7562L7.84874 16.8148ZM23.2661 21.3061L22.9904 21.996H9.01771C9.01771 21.996 9.04203 21.9579 8.70582 21.2986C8.4563 20.8108 8.76819 20.4989 9.26161 20.3217C10.2172 19.9774 13.0099 19.0018 16.0041 19.0018C18.9982 19.0018 21.8464 19.8427 22.7721 20.3217C23.1152 20.4989 23.5412 20.6236 23.2661 21.3098V21.3061ZM7.23494 12.7896C7.03346 12.8012 6.83154 12.8027 6.62987 12.7939C6.79268 12.5045 6.88312 12.182 7.04219 11.8452C7.54121 10.7847 8.11198 9.58459 9.12812 9.0787C10.5965 8.34763 13.6399 8.01827 16.0041 8.01827C18.3682 8.01827 21.4116 8.34513 22.88 9.0787C23.8961 9.58459 24.4644 10.7854 24.9659 11.8452C25.1262 12.1851 25.2154 12.5101 25.3826 12.8014C25.2579 12.8083 25.1144 12.8014 24.7719 12.7896H7.23494ZM28.9251 16.2896C28.7916 17.0681 28.9163 17.0057 27.5802 17.0057C26.4374 17.0028 25.2955 16.939 24.1594 16.8148C23.9816 16.783 23.9311 16.483 24.0733 16.372C24.6373 15.9483 25.2731 15.63 25.9503 15.4325C27.2777 15.0414 28.025 14.989 28.7629 15.0152C28.8125 15.0171 28.8596 15.0373 28.8952 15.0718C28.9308 15.1064 28.9523 15.1529 28.9556 15.2024C28.9909 15.5655 28.9807 15.9316 28.9251 16.2921V16.2896Z" fill="#388FF3"/>
</g>
</svg>
