<svg width="30" height="32" viewBox="0 0 30 32" fill="none" xmlns="http://www.w3.org/2000/svg">
<g id="Layer_x0020_1">
<path id="Vector" fill-rule="evenodd" clip-rule="evenodd" d="M27.5577 23.4788H5.93639C5.81583 23.4788 5.70276 23.4207 5.63226 23.3232L0.941182 16.8194C0.0550534 15.5909 0.964057 13.8874 2.43894 13.8874C3.03482 13.8874 3.59694 14.1739 3.94307 14.6537L7.63833 19.7766H27.5575C28.578 19.7766 29.4081 20.6069 29.4081 21.6275C29.4081 22.648 28.5784 23.479 27.5578 23.479L27.5577 23.4788Z" fill="#388FF3"/>
<path id="Vector_2" fill-rule="evenodd" clip-rule="evenodd" d="M26.1801 25.52H7.48609C7.27908 25.52 7.11108 25.3518 7.11108 25.145V23.1033C7.11108 22.8963 7.27908 22.7283 7.48609 22.7283H26.1801C26.3871 22.7283 26.5551 22.8965 26.5551 23.1033V25.145C26.5551 25.3518 26.3871 25.52 26.1801 25.52Z" fill="#388FF3"/>
<path id="Vector_3" fill-rule="evenodd" clip-rule="evenodd" d="M8.74726 32C7.84388 32 7.35394 31.1051 7.75538 29.7247L9.11814 25.0402C9.25351 24.5746 9.95083 24.7687 9.8447 25.2247H11.1308L11.1844 25.0403C11.3222 24.5662 12.0426 24.776 11.9046 25.25L11.572 26.3932H22.0939C21.8815 25.6627 21.5082 24.9333 22.0165 24.7852C22.3759 24.6803 22.4731 25.0118 22.5314 25.2123H23.8178C23.7276 24.7651 24.4129 24.5787 24.547 25.0402L25.9098 29.7247C26.7256 32.5293 23.9024 32.6124 23.3348 30.6607L22.7764 28.7422H10.8883L10.3303 30.6607C10.1138 31.4043 9.46633 32.0002 8.74708 32.0002L8.74726 32Z" fill="#388FF3"/>
<path id="Vector_4" fill-rule="evenodd" clip-rule="evenodd" d="M7.38685 12.8708C6.9661 12.8708 6.96816 12.3188 6.85941 11.7767C6.57966 10.3828 6.60497 9.02872 6.88172 7.76496C9.17673 7.1059 10.7285 7.3249 11.5578 7.3504C11.6086 9.22109 11.8934 10.4706 12.2508 12.2787C11.516 12.1583 10.079 11.8439 7.61017 12.813L7.38685 12.8708ZM7.10466 6.93021C8.04592 3.95814 10.4081 1.58981 13.4298 0.55931C12.2825 1.62844 11.6096 3.83326 11.5548 6.5044C10.1842 6.29664 8.32079 6.6244 7.10466 6.9304V6.93021ZM16.0805 0.0266201C19.3432 -0.200818 22.3584 1.07737 24.3523 3.4127C23.0572 3.60057 21.2045 4.01457 20.0613 4.7057C19.2819 2.91694 17.7043 0.630935 16.0807 0.0264326L16.0805 0.0266201ZM24.8855 4.09782C25.6551 5.18439 26.2104 6.44702 26.4892 7.83584C26.6164 8.46847 26.8851 9.06678 26.1964 9.08141C23.4184 9.14084 22.2671 10.0564 21.6534 10.4269C21.3013 8.6719 20.9422 7.01271 20.3747 5.48495C21.132 5.15364 22.5607 4.3592 24.8855 4.09801V4.09782ZM20.9088 10.5285C18.1606 10.1449 15.3661 10.7098 12.9881 12.1414C12.6236 10.2972 12.3391 9.06509 12.3125 7.14302C12.908 6.69602 15.5122 4.97739 19.6153 5.59108C20.2003 7.11227 20.5571 8.77559 20.9088 10.5285ZM12.3241 6.22014C12.4436 3.24695 13.3526 0.932624 14.7978 0.642748C16.5982 0.281246 18.4606 3.00657 19.2787 4.79008C15.7889 4.3877 13.3978 5.53708 12.3241 6.22014Z" fill="#388FF3"/>
<path id="Vector_5" fill-rule="evenodd" clip-rule="evenodd" d="M19.7723 20.527C19.278 20.527 18.501 20.527 17.7325 20.527C17.5575 20.527 17.4011 20.4038 17.3653 20.2257L15.4367 10.6185C15.3791 10.3317 18.0998 9.91203 18.133 10.0778L20.1405 20.0781C20.187 20.3097 20.0081 20.527 19.7723 20.527Z" fill="#388FF3"/>
</g>
</svg>
