<svg width="32" height="32" viewBox="0 0 32 32" fill="none" xmlns="http://www.w3.org/2000/svg">
<g id="Component 1" clip-path="url(#clip0_735_5699)">
<path id="Vector" d="M31.0615 31.2808C30.1455 30.5789 29.1545 29.9805 28.1067 29.4968L24.3608 27.7673C24.1755 28.2954 23.6912 29.4771 22.7339 30.6653C22.3293 31.1675 21.8879 31.6125 21.4138 32H32L31.0615 31.2808Z" fill="#388FF3"/>
<path id="Vector_2" d="M9.26611 30.6653C8.30884 29.4771 7.82446 28.2954 7.63916 27.7673L3.89331 29.4968C2.84546 29.9805 1.85449 30.5789 0.938477 31.2808L0 32H10.5862C10.1123 31.6125 9.67065 31.1677 9.26611 30.6653Z" fill="#388FF3"/>
<path id="Vector_3" d="M22.103 26.1248V25.9114C20.4509 27.3003 18.3215 28.1382 16 28.1382C13.6785 28.1382 11.5491 27.3003 9.89722 25.9114V26.1248C9.89722 26.4895 9.68335 26.8237 9.35254 26.9763C9.35254 26.9763 10.7993 32 16.0002 32C21.2009 32 22.6477 26.9763 22.6477 26.9763C22.3167 26.8237 22.103 26.4895 22.103 26.1248Z" fill="#388FF3"/>
<path id="Vector_4" d="M16 26.2622C20.2046 26.2622 23.625 22.8403 23.625 18.634V15.2571H8.375V18.634C8.375 22.8403 11.7957 26.2622 16 26.2622Z" fill="#388FF3"/>
<path id="Vector_5" d="M6.39746 13.3811H25.6025C26.1204 13.3811 26.54 12.9612 26.54 12.4434C26.54 11.9253 26.1204 11.5054 25.6025 11.5054H24.8149V10.5356C24.8149 7.5127 23.2866 4.84082 20.9626 3.25122V7.2085C20.9626 7.72656 20.543 8.14648 20.0251 8.14648C19.5076 8.14648 19.0876 7.72656 19.0876 7.2085V2.65479C19.0876 2.53003 19.1125 2.41089 19.157 2.302C18.4556 2.03198 17.7114 1.84912 16.9375 1.76685V8.35889C16.9375 8.87695 16.5176 9.29688 16 9.29688C15.4822 9.29688 15.0625 8.87695 15.0625 8.35889V1.76685C14.2886 1.84888 13.5447 2.03198 12.8435 2.30176C12.8877 2.41089 12.9126 2.52979 12.9126 2.65479V7.2085C12.9126 7.72656 12.4929 8.14648 11.9751 8.14648C11.4573 8.14648 11.0376 7.72656 11.0376 7.2085V3.25073C8.71338 4.84033 7.18481 7.5127 7.18481 10.5356V11.5054H6.39722C5.87964 11.5054 5.45972 11.9253 5.45972 12.4434C5.45972 12.9612 5.87964 13.3811 6.39746 13.3811Z" fill="#388FF3"/>
<path id="Vector_6" d="M20.9626 2.65479C20.9626 2.13672 20.543 1.7168 20.0251 1.7168C19.6323 1.7168 19.2961 1.95898 19.157 2.30225C19.7981 2.54907 20.4036 2.86865 20.9626 3.25122V2.65479Z" fill="#388FF3"/>
<path id="Vector_7" d="M11.9753 1.7168C11.4575 1.7168 11.0378 2.13672 11.0378 2.65479V3.25073C11.5969 2.86816 12.2024 2.54858 12.8435 2.30176C12.7041 1.95898 12.3682 1.7168 11.9753 1.7168Z" fill="#388FF3"/>
<path id="Vector_8" d="M16.9375 1.76685V0.937988C16.9375 0.419922 16.5178 0 16 0C15.4822 0 15.0625 0.419922 15.0625 0.937988V1.76685C15.3706 1.73389 15.6833 1.7168 16 1.7168C16.3167 1.7168 16.6294 1.73389 16.9375 1.76685Z" fill="#388FF3"/>
</g>
<defs>
<clipPath id="clip0_735_5699">
<rect width="32" height="32" fill="white"/>
</clipPath>
</defs>
</svg>
