<svg width="32" height="32" viewBox="0 0 32 32" fill="none" xmlns="http://www.w3.org/2000/svg">
<g id="Frame" clip-path="url(#clip0_735_1084)">
<g id="Group">
<path id="Vector" d="M22.6999 4.8H20.2999V2.4C20.2984 1.0752 19.225 0.0015 17.8999 0H13.0999C11.7751 0.0015 10.7014 1.0752 10.6999 2.4V4.8H8.29989C6.09182 4.80232 4.3024 6.59174 4.3 8.79989V13.5999C4.3015 14.925 5.3752 15.9984 6.69999 15.9999H10.6999V15.2001C10.6999 14.7583 11.0582 14.4 11.5 14.4C11.9418 14.4 12.3001 14.7583 12.3001 15.2001V15.9999H18.7V15.2001C18.7 14.7583 19.0583 14.4 19.5001 14.4C19.9419 14.4 20.2999 14.7583 20.2999 15.2001V15.9999H24.3001C25.6249 15.9984 26.6986 14.925 26.7001 13.5999V8.79989C26.6978 6.59182 24.9083 4.8024 22.6999 4.8ZM18.7 4.8H12.3001V2.4C12.3007 1.95847 12.6584 1.6005 13.0999 1.5999H17.8999C18.3416 1.6005 18.6994 1.95847 18.7 2.4V4.8ZM29.1001 19.2H28.3V27.9999C28.2918 28.2435 28.2672 28.4862 28.2265 28.7265C30.1208 28.3764 31.4963 26.7261 31.5001 24.8001V21.6C31.4986 20.2752 30.4249 19.2015 29.1001 19.2ZM2.7001 19.2H1.9C0.575199 19.2015 -0.4985 20.2752 -0.5 21.6V24.8001C-0.496475 26.7261 0.879249 28.3764 2.77337 28.7265C2.73285 28.4862 2.70837 28.2434 2.7001 27.9999V19.2ZM20.2999 17.6001V20.0001C20.2999 20.4418 19.9419 20.7999 19.5001 20.7999C19.0583 20.7999 18.7 20.4419 18.7 20.0001V17.6001H12.3001V20.0001C12.3001 20.4418 11.9418 20.7999 11.5 20.7999C11.0582 20.7999 10.6999 20.4419 10.6999 20.0001V17.6001H6.69999C5.8317 17.5971 4.98844 17.3089 4.3 16.7797V27.9999C4.30232 30.2083 6.09174 31.9978 8.29989 32.0001H22.6999C24.9083 31.9978 26.6978 30.2083 26.7001 27.9999V16.7797C26.0116 17.3088 25.1684 17.5971 24.3001 17.6001H20.2999Z" fill="#388FF3"/>
</g>
</g>
<defs>
<clipPath id="clip0_735_1084">
<rect width="32" height="32" fill="white" transform="translate(-0.5)"/>
</clipPath>
</defs>
</svg>
