<svg width="57" height="14" viewBox="0 0 57 14" fill="none" xmlns="http://www.w3.org/2000/svg">
<g id="Group">
<path id="Vector" d="M29.6704 10.5042C28.8203 10.6451 27.9596 10.7105 27.0982 10.6996C25.4827 10.6996 23.7504 9.63121 23.7504 6.64816V4.90229C23.7504 1.7393 25.5664 0.839709 27.2128 0.839709C28.0356 0.832334 28.8576 0.893261 29.6704 1.02185C29.785 1.03518 29.8908 1.08627 29.8908 1.21732V1.86812C29.8908 1.95919 29.8401 1.99919 29.7232 1.99919H29.6725C28.9098 1.93476 28.3149 1.9081 27.2149 1.9081C26.0138 1.9081 24.9272 2.55892 24.9272 4.90229V6.64816C24.9272 8.79838 25.8971 9.6446 27.1004 9.6446C27.8873 9.6446 28.4229 9.59353 28.7269 9.56674V5.84187C28.7243 5.80899 28.7282 5.77589 28.7387 5.74462C28.7491 5.71335 28.7658 5.68455 28.7876 5.66002C28.8096 5.63546 28.8361 5.61568 28.8659 5.60189C28.8957 5.58809 28.9279 5.58055 28.9605 5.57977H29.6593C29.7257 5.5832 29.7883 5.61239 29.8338 5.66125C29.8795 5.71009 29.9045 5.77482 29.904 5.84187V10.2176C29.9059 10.2858 29.8833 10.3524 29.8404 10.4051C29.7974 10.4578 29.7369 10.493 29.6704 10.5042Z" fill="#B8BBBD"/>
<path id="Vector_2" d="M34.7218 4.35592C34.1201 4.33186 33.5176 4.37583 32.9255 4.48697V10.3487C32.9287 10.4123 32.9077 10.4746 32.8666 10.5228C32.8256 10.5712 32.768 10.6019 32.7051 10.6085H32.0329C31.9678 10.6051 31.9068 10.5759 31.8629 10.5273C31.8191 10.4785 31.7963 10.4144 31.7993 10.3487V4.01828C31.8031 3.95288 31.8265 3.89015 31.8661 3.83825C31.9059 3.78636 31.9601 3.7477 32.0219 3.72731C32.758 3.4008 33.6507 3.36304 34.7218 3.36304C34.8915 3.36304 34.9952 3.37636 34.9952 3.5585V4.15601C34.9952 4.29151 34.9688 4.35592 34.7218 4.35592Z" fill="#B8BBBD"/>
<path id="Vector_3" d="M39.0108 10.6995C37.111 10.6995 36.1456 9.43575 36.1456 7.52099V6.53033C36.1456 4.61566 37.1153 3.354 39.0108 3.354C40.9063 3.354 41.8761 4.61566 41.8761 6.53033V7.52099C41.8761 9.43575 40.8997 10.6995 39.0108 10.6995ZM40.7564 6.53033C40.7564 5.1976 40.2253 4.35577 39.0108 4.35577C37.7965 4.35577 37.2784 5.19094 37.2784 6.53033V7.52099C37.2784 8.85363 37.7965 9.69771 39.0108 9.69771C40.2253 9.69771 40.7564 8.86256 40.7564 7.52099V6.53033Z" fill="#B8BBBD"/>
<path id="Vector_4" d="M46.1872 10.6995H46.0638C45.1821 10.6995 43.4014 10.2041 43.4014 7.63872V3.70495C43.3985 3.67181 43.4026 3.63846 43.4134 3.60701C43.4241 3.57555 43.4412 3.54669 43.4637 3.52225C43.486 3.49782 43.5131 3.47834 43.5434 3.46505C43.5738 3.45177 43.6064 3.44496 43.6393 3.44507H44.3117C44.3441 3.44557 44.3764 3.45282 44.4061 3.46637C44.4359 3.47993 44.4625 3.4995 44.4844 3.52387C44.5064 3.54824 44.5229 3.5769 44.5335 3.60805C44.544 3.63921 44.5479 3.67219 44.5453 3.70495V7.63872C44.5453 9.19361 45.2064 9.69771 46.0705 9.69771H46.1872C47.0512 9.69771 47.7124 9.20236 47.7124 7.63872V3.70495C47.7097 3.67237 47.7136 3.63956 47.724 3.60856C47.7343 3.57756 47.7507 3.54901 47.7725 3.52467C47.7941 3.50034 47.8205 3.48071 47.8499 3.46703C47.8794 3.45334 47.9113 3.44587 47.9438 3.44507H48.616C48.6487 3.44557 48.6808 3.45282 48.7106 3.46637C48.7402 3.47993 48.767 3.4995 48.7889 3.52387C48.8107 3.54824 48.8275 3.5769 48.838 3.60805C48.8484 3.63921 48.8525 3.67219 48.8496 3.70495V7.63872C48.8496 10.2041 47.0644 10.6995 46.1872 10.6995Z" fill="#B8BBBD"/>
<path id="Vector_5" d="M53.2553 10.6997C52.7484 10.6929 52.2428 10.6454 51.7433 10.5576V12.9143C51.7433 12.9468 51.7371 12.9788 51.7248 13.0088C51.7125 13.0386 51.6944 13.0657 51.6718 13.0887C51.6489 13.1116 51.622 13.1298 51.5924 13.1421C51.5626 13.1545 51.5308 13.1609 51.4987 13.1609H50.8375C50.8059 13.1605 50.7747 13.1539 50.7458 13.1414C50.7169 13.1287 50.6909 13.1104 50.6691 13.0873C50.6471 13.0645 50.6302 13.0371 50.6191 13.0075C50.6079 12.9779 50.6027 12.9461 50.6039 12.9143V3.94955C50.6039 3.78075 50.6436 3.703 50.875 3.65192C51.6539 3.46158 52.4518 3.361 53.2532 3.35205C55.1794 3.35205 56.0721 4.61369 56.0721 6.56836V7.50349C56.0743 9.55369 55.1419 10.6997 53.2553 10.6997ZM54.9347 6.57057C54.9347 5.20231 54.5359 4.31827 53.2553 4.31827C52.7487 4.32123 52.2432 4.3643 51.7433 4.4471V9.60476C52.2433 9.68743 52.7487 9.73136 53.2553 9.73582C54.5227 9.73582 54.9347 8.90282 54.9347 7.51459V6.57057Z" fill="#B8BBBD"/>
<path id="Vector_6" d="M7.17386 10.593C6.59194 10.6841 4.96967 10.7996 4.40774 10.7996C1.91285 10.7996 0.220093 10.1688 0.220093 7.01029V1.25292C0.220628 1.21957 0.227768 1.18667 0.241152 1.15614C0.254535 1.12562 0.273627 1.09807 0.297717 1.07512C0.321629 1.05216 0.350003 1.03425 0.380875 1.02245C0.411925 1.01064 0.444939 1.00518 0.477952 1.00636H2.58506C2.61808 1.00488 2.65127 1.01013 2.68232 1.02182C2.71337 1.03352 2.74192 1.05139 2.76601 1.07441C2.78992 1.09743 2.8092 1.1251 2.8224 1.15576C2.83561 1.18644 2.84257 1.21948 2.84292 1.25292V7.01029C2.84292 8.18309 3.23087 8.56513 4.14988 8.56513C4.56477 8.56379 4.97913 8.53708 5.39081 8.48517V1.25292C5.39099 1.21948 5.39794 1.18644 5.41115 1.15576C5.42435 1.1251 5.44363 1.09743 5.46772 1.07441C5.49181 1.05139 5.52018 1.03352 5.55123 1.02182C5.58228 1.01013 5.61547 1.00488 5.64866 1.00636H7.7424C7.81074 1.00332 7.87731 1.0275 7.92816 1.07362C7.97884 1.11977 8.00953 1.18417 8.01346 1.25292V9.58913C8.01346 10.3177 7.79307 10.502 7.17386 10.593Z" fill="#16191D"/>
<path id="Vector_7" d="M12.0712 10.6833H9.95084C9.88303 10.6817 9.81861 10.6533 9.77114 10.6042C9.72385 10.5553 9.69727 10.4896 9.69727 10.4214V1.25217C9.69798 1.2192 9.70494 1.18669 9.71797 1.15646C9.73099 1.12622 9.74991 1.09887 9.77346 1.07598C9.79702 1.05308 9.82467 1.03508 9.85519 1.02301C9.88552 1.01094 9.91818 1.00503 9.95084 1.00562H12.0712C12.1042 1.00412 12.1374 1.00937 12.1684 1.02107C12.1995 1.03276 12.228 1.05066 12.2519 1.07367C12.276 1.09667 12.2953 1.12435 12.3085 1.15503C12.3217 1.18569 12.3287 1.21874 12.329 1.25217V10.4214C12.3292 10.4557 12.3228 10.4896 12.3099 10.5214C12.2971 10.5532 12.2782 10.5821 12.2542 10.6066C12.2302 10.6308 12.2018 10.6501 12.1702 10.6633C12.1388 10.6766 12.1051 10.6833 12.0712 10.6833Z" fill="#16191D"/>
<path id="Vector_8" d="M19.5669 10.5662C18.9789 10.7351 18.3688 10.8138 17.7574 10.7994C15.3793 10.7994 13.777 9.49781 13.777 6.51471V5.18199C13.777 2.19001 15.3793 0.888394 17.7574 0.888394C18.3688 0.875162 18.9786 0.953766 19.5669 1.12162C19.7741 1.18826 19.8514 1.22601 19.8514 1.40816V3.07629C19.8514 3.24508 19.7741 3.32283 19.631 3.32283H19.5912C18.9905 3.2521 18.3865 3.21355 17.7817 3.20734C17.0831 3.20734 16.4592 3.51831 16.4592 5.17309V6.50582C16.4592 8.14728 17.0808 8.47381 17.7817 8.47381C18.3865 8.46697 18.9905 8.42768 19.5912 8.35608H19.6154C19.7698 8.35608 19.8358 8.43383 19.8358 8.60264V10.2796C19.8514 10.4485 19.7741 10.5017 19.5669 10.5662Z" fill="#16191D"/>
</g>
</svg>
