<svg width="28" height="32" viewBox="0 0 28 32" fill="none" xmlns="http://www.w3.org/2000/svg">
<g id="Group">
<g id="Group_2">
<g id="Group_3">
<path id="Vector" d="M14.5712 12.8571C14.5712 13.6461 15.2108 14.2857 15.9997 14.2857C16.7887 14.2857 17.4283 13.6461 17.4283 12.8571C17.4283 12.0681 16.7887 11.4286 15.9997 11.4286C15.2111 11.4294 14.572 12.0685 14.5712 12.8571Z" fill="#388FF3"/>
<path id="Vector_2" d="M17.9998 10.8571C18.0005 11.488 18.5118 11.9993 19.1426 12C19.7738 12 20.2855 11.4883 20.2855 10.8571C20.2855 10.226 19.7738 9.71426 19.1426 9.71426C18.5114 9.71426 17.9998 10.226 17.9998 10.8571Z" fill="#388FF3"/>
<path id="Vector_3" d="M5.9968 6.88631C6.09218 6.86949 6.18868 6.85974 6.28543 6.85712C7.30999 6.86043 8.16568 7.63906 8.26537 8.65874C8.4578 8.60349 8.65674 8.57412 8.85687 8.57137C9.96274 8.57368 10.9082 9.36743 11.1021 10.4562C11.3886 10.3456 11.6927 10.2879 11.9997 10.2856C12.7803 10.2884 13.5169 10.6475 13.9997 11.2607C14.6809 10.3805 15.8599 10.0531 16.8974 10.4562C17.0912 9.36743 18.0367 8.57368 19.1426 8.57137C19.3428 8.57412 19.5417 8.60349 19.7341 8.65874C19.8338 7.63899 20.6894 6.86043 21.7141 6.85712C21.8109 6.85974 21.9073 6.86949 22.0027 6.88631C22.0026 6.87637 21.9997 6.86712 21.9997 6.85712C22.0017 6.57356 22.0749 6.29499 22.2126 6.04712C21.505 5.29449 20.8751 4.47256 20.3323 3.59374L20.3089 3.55887V3.55918C20.0012 3.06474 19.7644 2.62312 19.5866 2.26324C19.2696 2.47849 18.9252 2.65056 18.5628 2.77499C18.5236 2.79418 18.4823 2.80862 18.4397 2.81806C16.9999 3.24856 15.5022 3.45449 13.9997 3.42862C12.4972 3.45449 10.9998 3.24862 9.56005 2.81824C9.51674 2.80874 9.4748 2.79406 9.43499 2.77449C9.07312 2.65018 8.72937 2.47831 8.4128 2.26331C8.23505 2.62318 7.99818 3.06481 7.69049 3.55924V3.55899L7.66705 3.59387C7.1243 4.47274 6.49437 5.29468 5.78687 6.04724C5.92449 6.29518 5.99762 6.57368 5.99962 6.85724C5.99974 6.86712 5.99693 6.87637 5.9968 6.88631Z" fill="#388FF3"/>
<path id="Vector_4" d="M23.714 7.42855C24.0296 7.42855 24.2855 7.17274 24.2855 6.85711C24.2851 6.54167 24.0295 6.28599 23.714 6.28568C23.3985 6.28568 23.1426 6.54149 23.1426 6.85711C23.1426 7.17274 23.3985 7.42855 23.714 7.42855Z" fill="#388FF3"/>
<path id="Vector_5" d="M20.8568 8.85713C20.8573 9.33031 21.2408 9.71375 21.7139 9.71425C22.1873 9.71425 22.5711 9.3305 22.5711 8.85713C22.5711 8.38375 22.1873 8 21.7139 8C21.2406 8 20.8568 8.38375 20.8568 8.85713Z" fill="#388FF3"/>
<path id="Vector_6" d="M13.9997 2.28569C17.3122 2.28569 19.0254 1.46619 19.1409 1.14281C19.0253 0.8195 17.3122 0 13.9997 0C10.6571 0 8.94334 0.834312 8.85571 1.1515C8.94334 1.45144 10.657 2.28569 13.9997 2.28569Z" fill="#388FF3"/>
<path id="Vector_7" d="M7.71399 10.8571C7.71399 11.4883 8.22568 12 8.85686 12C9.48805 12 9.99974 11.4883 9.99974 10.8571C9.99974 10.226 9.48805 9.71426 8.85686 9.71426C8.22599 9.71501 7.71474 10.2263 7.71399 10.8571Z" fill="#388FF3"/>
<path id="Vector_8" d="M12.469 26.9467C13.4609 27.2909 14.5397 27.2907 15.5315 26.9462C25.8964 23.3078 27.4662 11.9437 27.6822 9.56143C26.6578 9.23568 25.6817 8.77412 24.7801 8.189C24.479 8.43481 24.1027 8.56981 23.714 8.57143C23.704 8.57143 23.6947 8.56862 23.6849 8.56849C23.7016 8.66387 23.7114 8.76037 23.714 8.85718C23.7127 9.96118 22.818 10.8559 21.714 10.8572C21.6172 10.8546 21.5207 10.8448 21.4254 10.828C21.4255 10.838 21.4283 10.8472 21.4283 10.8572C21.427 12.119 20.4044 13.1416 19.1426 13.1429C18.9424 13.1401 18.7436 13.1107 18.5511 13.0555C18.4774 14.1079 17.7636 15.0064 16.7551 15.3161C15.7467 15.6259 14.6516 15.283 13.9998 14.4534C13.3481 15.283 12.2529 15.6259 11.2445 15.3161C10.236 15.0064 9.52218 14.1079 9.44849 13.0555C9.25606 13.1107 9.05712 13.1401 8.85699 13.1429C7.59518 13.1416 6.57262 12.1189 6.57131 10.8572C6.57131 10.8472 6.57412 10.838 6.57424 10.828C6.47887 10.8448 6.38237 10.8546 6.28562 10.8572C5.18162 10.8559 4.28693 9.96118 4.28562 8.85718C4.28824 8.76037 4.29799 8.66387 4.31474 8.56849C4.30487 8.56868 4.29562 8.57143 4.28562 8.57143C3.89699 8.56975 3.52068 8.43475 3.21962 8.189C2.31806 8.77406 1.34218 9.23562 0.317993 9.56137C0.536556 11.9445 2.11799 23.3131 12.469 26.9467Z" fill="#388FF3"/>
<path id="Vector_9" d="M18.3557 30.7025C18.4398 31.0059 18.2627 31.3202 17.9595 31.4054C17.6564 31.4905 17.3415 31.3145 17.2553 31.0117C16.9262 29.8351 16.966 28.5859 17.3693 27.4327C16.8994 27.6443 16.4177 27.8461 15.9088 28.0248C14.6727 28.4539 13.328 28.4541 12.0918 28.0254C11.5825 27.8466 11.1004 27.6446 10.6303 27.4328C11.0335 28.5861 11.0733 29.8352 10.7442 31.0117C10.6896 31.209 10.5336 31.3619 10.3353 31.4127C10.1371 31.4636 9.92679 31.4045 9.78398 31.2579C9.64116 31.1112 9.58772 30.8994 9.64372 30.7026C9.71616 30.4438 9.76654 30.1794 9.79416 29.9121C7.06516 30.1764 5.88054 30.6233 5.51929 30.86C6.16379 31.2989 9.02535 32 13.9997 32C18.9741 32 21.8357 31.2989 22.4802 30.8599C22.1189 30.6232 20.934 30.1761 18.2043 29.9119C18.2325 30.1792 18.2832 30.4437 18.3557 30.7025Z" fill="#388FF3"/>
<path id="Vector_10" d="M6.28547 9.71431C6.75884 9.71431 7.1426 9.33056 7.1426 8.85719C7.1426 8.38381 6.75884 8.00006 6.28547 8.00006C5.81228 8.00056 5.42884 8.38406 5.42834 8.85719C5.42834 9.3305 5.8121 9.71431 6.28547 9.71431Z" fill="#388FF3"/>
<path id="Vector_11" d="M10.5712 12.8571C10.5712 13.6461 11.2108 14.2857 11.9997 14.2857C12.7887 14.2857 13.4283 13.6461 13.4283 12.8571C13.4283 12.0681 12.7887 11.4286 11.9997 11.4286C11.2111 11.4294 10.572 12.0685 10.5712 12.8571Z" fill="#388FF3"/>
<path id="Vector_12" d="M4.28543 7.42855C4.60099 7.42855 4.85686 7.17274 4.85686 6.85711C4.85686 6.54149 4.60105 6.28568 4.28543 6.28568C3.96999 6.28599 3.7143 6.54167 3.71399 6.85711C3.71399 7.17274 3.96986 7.42855 4.28543 7.42855Z" fill="#388FF3"/>
</g>
</g>
</g>
</svg>
